<svg width="360" height="360" viewBox="0 0 360 360" fill="none" xmlns="http://www.w3.org/2000/svg">
<g clip-path="url(#clip0)">
<ellipse cx="94" cy="144" rx="22" ry="19" fill="#FFD0B2"/>
<ellipse cx="263" cy="144" rx="22" ry="19" fill="#FFD0B2"/>
<path fill-rule="evenodd" clip-rule="evenodd" d="M178 43C147 43 95.5 54.2 95.5 125C95.6088 125 95.7165 125 95.823 125C93.9778 136.056 93.4095 147.025 94.6942 156.5C97.8942 180.1 128.361 198 143.194 204C148.028 206 161.894 210 178.694 210C195.494 210 209.361 206 214.194 204C229.028 198 259.494 180.1 262.694 156.5C263.99 146.946 263.392 135.882 261.5 124.742C261.375 54.1727 209.962 43 179 43H178Z" fill="#FFDCBC"/>
<path fill-rule="evenodd" clip-rule="evenodd" d="M203.984 41.6663C205.284 39.1484 206 36.3908 206 33.5C206 21.6259 193.912 12 179 12C164.088 12 152 21.6259 152 33.5C152 36.3054 152.675 38.9853 153.902 41.4424C113.358 51.8759 95.5 88.5451 95.5 127C94.5 127.333 91.5 131.8 87.5 147C84.2262 159.44 91.67 170.38 97.9019 179.539C101.188 184.368 104.137 188.702 105 192.5C107 201.3 102.833 210.833 100.5 214.5C99.1666 215.167 97.7 216.1 102.5 214.5C108.5 212.5 119.5 206.5 118.5 189C117.96 179.544 114.5 173.592 111.196 167.909C108.386 163.075 105.689 158.435 105 152C103.8 140.8 111.5 120.333 115.5 111.5C137.5 111.5 150 82.8333 153.5 68.5C153.5 94.5 212.5 108 242 111.5C246 120.333 253.7 140.8 252.5 152C251.811 158.435 249.114 163.075 246.304 167.909C243 173.592 239.54 179.544 239 189C238 206.5 249 212.5 255 214.5C259.8 216.1 258.333 215.167 257 214.5C254.667 210.833 250.5 201.3 252.5 192.5C253.363 188.702 256.312 184.368 259.598 179.539C265.83 170.38 273.274 159.44 270 147C266 131.8 263 127.333 262 127C262 88.8154 244.041 52.3916 203.984 41.6663Z" fill="#161515"/>
<path d="M128.71 133.634C130.476 131.111 136.241 126.262 145.177 127.044C154.113 127.826 158.511 133.564 159.592 136.336" stroke="#8C501D" stroke-width="4" stroke-linecap="round"/>
<path d="M199.407 136.336C200.708 133.545 205.544 127.768 214.48 126.986C223.416 126.205 228.743 131.092 230.29 133.634" stroke="#8C501D" stroke-width="4" stroke-linecap="round"/>
<path d="M155 162C157.333 164.667 163.4 170 169 170C174.6 170 179 166.667 180.5 165C182 166.667 186.4 170 192 170C197.6 170 203.667 164.667 206 162" stroke="#8C501D" stroke-width="3" stroke-linecap="round" stroke-linejoin="round"/>
<ellipse cx="181" cy="143.5" rx="9" ry="5.5" fill="#FF7E36"/>
<path fill-rule="evenodd" clip-rule="evenodd" d="M155.353 207.521C144.473 209.609 126.11 218.194 108.5 242C93.5708 262.182 83.8327 274.609 76.5453 283.112C75.8737 283.038 75.1913 283 74.5 283C64.2827 283 56 291.283 56 301.5C56 311.717 64.2827 320 74.5 320C84.7173 320 93 311.717 93 301.5C93 298.965 92.49 296.549 91.567 294.348C105.418 280.375 125.52 260.542 137.853 253.5C133.649 267.573 123.181 325.514 137.853 360.5H173.5L179.75 337.5L186.5 360.5H221.647C236.319 325.514 225.851 267.573 221.647 253.5C233.409 260.216 253.274 279.603 267.588 293.989C266.567 296.285 266 298.826 266 301.5C266 311.717 274.283 320 284.5 320C294.717 320 303 311.717 303 301.5C303 291.283 294.717 283 284.5 283C284.035 283 283.574 283.017 283.118 283.051C275.383 274.008 265.073 261.025 251 242C232.741 217.317 213.672 208.997 202.975 207.316C196.493 208.76 188.048 210 178.694 210C169.786 210 161.702 208.875 155.353 207.521Z" fill="#FFDCBC"/>
<path fill-rule="evenodd" clip-rule="evenodd" d="M228.993 304.17C221.388 304.805 194.042 307 179.5 307C166.509 307 141.548 305.248 130.496 304.422C129.688 323.651 131.135 344.482 137.853 360.5H173.5L179.75 337.5L186.5 360.5H221.647C228.394 344.412 229.825 323.469 228.993 304.17Z" fill="#212121"/>
<g style="mix-blend-mode:hard-light" opacity="0.1" filter="url(#filter0_f)">
<path fill-rule="evenodd" clip-rule="evenodd" d="M210.094 209.12C209.12 214.652 206.646 223.035 205.476 227C205.054 228.429 204.749 230.949 204.395 233.872C203.51 241.173 202.321 250.985 198.25 252.584C192.549 254.822 186.083 256 179.5 256C172.917 256 166.451 254.822 160.75 252.584C155.049 250.346 153.5 237.5 153.5 228C153.5 222.367 151.733 217.428 150.295 213.408C149.756 211.901 149.263 210.523 148.927 209.285C151.272 208.462 153.43 207.89 155.353 207.521C161.702 208.875 169.786 210 178.694 210C188.048 210 196.493 208.76 202.975 207.316C205.054 207.642 207.45 208.22 210.094 209.12Z" fill="#700000"/>
</g>
<mask id="mask0" mask-type="alpha" maskUnits="userSpaceOnUse" x="75" y="207" width="209" height="154">
<path d="M113 235.382C123.121 222.5 143 207.882 154.5 207.882C160.667 210.382 172.961 217.658 179.5 224.197C185.947 217.749 198.333 210.382 204.5 207.882C216 207.882 236.665 223.5 246 235.382C257 249.382 281.5 277 283.5 279C282.5 281.167 279.6 286.2 276 289C272.4 291.8 261.5 299.5 259 299.5C249.167 286 228.7 258.7 225.5 257.5C231 289 242 353.7 242 360.5H117.5C116.7 352.9 127.833 288.667 133.5 257.5C130.3 258.7 109.833 286 100 299.5C97.5 299.5 86.6 291.8 83 289C79.4 286.2 76.5 281.167 75.5 279C77.5 277 102 249.382 113 235.382Z" fill="black"/>
</mask>
<g mask="url(#mask0)">
<rect x="72" y="197" width="213" height="163" fill="#F1F1FF"/>
<g filter="url(#filter1_d)">
<path d="M133.565 257.526C142.977 243.29 135.957 226.162 132.813 214.279L143.538 209.736C148.92 218.815 159.571 238.853 159.122 246.378C162.779 245.855 172.24 244.808 180.822 244.808C191.551 244.808 194.496 246.378 199.971 246.378C199.522 238.853 210.173 218.815 215.555 209.736L226.28 214.279C223.136 226.162 216.116 243.29 225.528 257.526L243.445 299.38L248.804 365.256H111.38L115.162 299.38L133.565 257.526Z" fill="#4E4E8A"/>
</g>
<g filter="url(#filter2_f)">
<path d="M139.747 286.773L134.073 363.365M158.343 286.773V363.365M218.545 286.773L224.219 363.365M199.948 286.773V363.365M179.777 286.773V363.365" stroke="#101042"/>
</g>
<g filter="url(#filter3_d)">
<path d="M124.026 283.163C168.788 282.224 193.993 282.233 239.302 283.163V295.925C193.161 298.155 167.922 298.183 124.026 295.925V283.163Z" fill="#5C5C9D"/>
</g>
<g filter="url(#filter4_d)">
<path d="M184.128 227.33C184.128 228.785 182.113 229.525 179.628 229.525C177.142 229.525 175.128 228.785 175.128 227.33C175.128 225.875 177.142 224.257 179.628 224.257C182.113 224.257 184.128 225.875 184.128 227.33Z" fill="#D94949"/>
<path d="M166.628 269.909C164.228 267.099 172.294 241.523 176.628 229.086C177.128 228.062 178.228 226.628 178.628 229.086C179.028 231.544 174.461 258.788 172.128 272.103C170.928 272.806 167.961 270.933 166.628 269.909Z" fill="#D94949"/>
<path d="M158.128 237.426C158.128 234.266 170.461 229.086 176.628 226.891L177.628 228.208C178.428 229.964 170.628 240.499 165.128 244.449C162.128 244.449 158.128 240.587 158.128 237.426Z" fill="#D94949"/>
<path d="M193.152 269.909C195.552 267.099 187.486 241.523 183.152 229.086C182.652 228.062 181.552 226.628 181.152 229.086C180.752 231.544 185.319 258.788 187.652 272.103C188.852 272.806 191.819 270.933 193.152 269.909Z" fill="#D94949"/>
<path d="M201.652 237.426C201.652 234.266 189.319 229.086 183.152 226.891L182.152 228.208C181.352 229.964 189.152 240.499 194.652 244.449C197.652 244.449 201.652 240.587 201.652 237.426Z" fill="#D94949"/>
</g>
<g filter="url(#filter5_i)">
<path d="M110.916 286.507C103.391 283.475 89.1554 270.081 82.9782 263.764L66.5521 279.207L75.397 294.229L94.2094 304.618L110.916 286.507Z" fill="#E9E9FF"/>
</g>
<g filter="url(#filter6_i)">
<path d="M247.376 286.507C254.901 283.475 269.137 270.081 275.314 263.764L291.74 279.207L282.895 294.229L264.083 304.618L247.376 286.507Z" fill="#E9E9FF"/>
</g>
<g filter="url(#filter7_d)">
<circle cx="179.5" cy="257.535" r="2.41911" fill="url(#paint0_radial)"/>
</g>
<g filter="url(#filter8_d)">
<circle cx="179.5" cy="271.839" r="2.41911" fill="url(#paint1_radial)"/>
</g>
</g>
</g>
<defs>
<filter id="filter0_f" x="146.927" y="205.316" width="65.1671" height="52.6844" filterUnits="userSpaceOnUse" color-interpolation-filters="sRGB">
<feFlood flood-opacity="0" result="BackgroundImageFix"/>
<feBlend mode="normal" in="SourceGraphic" in2="BackgroundImageFix" result="shape"/>
<feGaussianBlur stdDeviation="1" result="effect1_foregroundBlur"/>
</filter>
<filter id="filter1_d" x="107.38" y="205.736" width="145.424" height="163.52" filterUnits="userSpaceOnUse" color-interpolation-filters="sRGB">
<feFlood flood-opacity="0" result="BackgroundImageFix"/>
<feColorMatrix in="SourceAlpha" type="matrix" values="0 0 0 0 0 0 0 0 0 0 0 0 0 0 0 0 0 0 127 0"/>
<feOffset/>
<feGaussianBlur stdDeviation="2"/>
<feColorMatrix type="matrix" values="0 0 0 0 0.305882 0 0 0 0 0.305882 0 0 0 0 0.541176 0 0 0 0.4 0"/>
<feBlend mode="normal" in2="BackgroundImageFix" result="effect1_dropShadow"/>
<feBlend mode="normal" in="SourceGraphic" in2="effect1_dropShadow" result="shape"/>
</filter>
<filter id="filter2_f" x="127.575" y="280.736" width="103.143" height="88.6656" filterUnits="userSpaceOnUse" color-interpolation-filters="sRGB">
<feFlood flood-opacity="0" result="BackgroundImageFix"/>
<feBlend mode="normal" in="SourceGraphic" in2="BackgroundImageFix" result="shape"/>
<feGaussianBlur stdDeviation="3" result="effect1_foregroundBlur"/>
</filter>
<filter id="filter3_d" x="120.026" y="280.462" width="123.276" height="23.1459" filterUnits="userSpaceOnUse" color-interpolation-filters="sRGB">
<feFlood flood-opacity="0" result="BackgroundImageFix"/>
<feColorMatrix in="SourceAlpha" type="matrix" values="0 0 0 0 0 0 0 0 0 0 0 0 0 0 0 0 0 0 127 0"/>
<feOffset dy="2"/>
<feGaussianBlur stdDeviation="2"/>
<feColorMatrix type="matrix" values="0 0 0 0 0.206111 0 0 0 0 0.206111 0 0 0 0 0.441667 0 0 0 0.6 0"/>
<feBlend mode="normal" in2="BackgroundImageFix" result="effect1_dropShadow"/>
<feBlend mode="normal" in="SourceGraphic" in2="effect1_dropShadow" result="shape"/>
</filter>
<filter id="filter4_d" x="156.128" y="223.257" width="47.5246" height="51.9999" filterUnits="userSpaceOnUse" color-interpolation-filters="sRGB">
<feFlood flood-opacity="0" result="BackgroundImageFix"/>
<feColorMatrix in="SourceAlpha" type="matrix" values="0 0 0 0 0 0 0 0 0 0 0 0 0 0 0 0 0 0 127 0"/>
<feOffset dy="1"/>
<feGaussianBlur stdDeviation="1"/>
<feColorMatrix type="matrix" values="0 0 0 0 0.198333 0 0 0 0 0.198333 0 0 0 0 0.466667 0 0 0 0.3 0"/>
<feBlend mode="normal" in2="BackgroundImageFix" result="effect1_dropShadow"/>
<feBlend mode="normal" in="SourceGraphic" in2="effect1_dropShadow" result="shape"/>
</filter>
<filter id="filter5_i" x="66.5521" y="263.764" width="45.364" height="42.854" filterUnits="userSpaceOnUse" color-interpolation-filters="sRGB">
<feFlood flood-opacity="0" result="BackgroundImageFix"/>
<feBlend mode="normal" in="SourceGraphic" in2="BackgroundImageFix" result="shape"/>
<feColorMatrix in="SourceAlpha" type="matrix" values="0 0 0 0 0 0 0 0 0 0 0 0 0 0 0 0 0 0 127 0" result="hardAlpha"/>
<feOffset dx="1" dy="2"/>
<feGaussianBlur stdDeviation="2"/>
<feComposite in2="hardAlpha" operator="arithmetic" k2="-1" k3="1"/>
<feColorMatrix type="matrix" values="0 0 0 0 0.650174 0 0 0 0 0.650174 0 0 0 0 0.891667 0 0 0 0.3 0"/>
<feBlend mode="normal" in2="shape" result="effect1_innerShadow"/>
</filter>
<filter id="filter6_i" x="247.376" y="263.764" width="45.364" height="42.854" filterUnits="userSpaceOnUse" color-interpolation-filters="sRGB">
<feFlood flood-opacity="0" result="BackgroundImageFix"/>
<feBlend mode="normal" in="SourceGraphic" in2="BackgroundImageFix" result="shape"/>
<feColorMatrix in="SourceAlpha" type="matrix" values="0 0 0 0 0 0 0 0 0 0 0 0 0 0 0 0 0 0 127 0" result="hardAlpha"/>
<feOffset dx="1" dy="2"/>
<feGaussianBlur stdDeviation="2"/>
<feComposite in2="hardAlpha" operator="arithmetic" k2="-1" k3="1"/>
<feColorMatrix type="matrix" values="0 0 0 0 0.650174 0 0 0 0 0.650174 0 0 0 0 0.891667 0 0 0 0.3 0"/>
<feBlend mode="normal" in2="shape" result="effect1_innerShadow"/>
</filter>
<filter id="filter7_d" x="174.081" y="252.116" width="10.8382" height="10.8382" filterUnits="userSpaceOnUse" color-interpolation-filters="sRGB">
<feFlood flood-opacity="0" result="BackgroundImageFix"/>
<feColorMatrix in="SourceAlpha" type="matrix" values="0 0 0 0 0 0 0 0 0 0 0 0 0 0 0 0 0 0 127 0"/>
<feOffset/>
<feGaussianBlur stdDeviation="1.5"/>
<feColorMatrix type="matrix" values="0 0 0 0 0.239167 0 0 0 0 0.239167 0 0 0 0 0.466667 0 0 0 0.4 0"/>
<feBlend mode="normal" in2="BackgroundImageFix" result="effect1_dropShadow"/>
<feBlend mode="normal" in="SourceGraphic" in2="effect1_dropShadow" result="shape"/>
</filter>
<filter id="filter8_d" x="174.081" y="266.42" width="10.8382" height="10.8382" filterUnits="userSpaceOnUse" color-interpolation-filters="sRGB">
<feFlood flood-opacity="0" result="BackgroundImageFix"/>
<feColorMatrix in="SourceAlpha" type="matrix" values="0 0 0 0 0 0 0 0 0 0 0 0 0 0 0 0 0 0 127 0"/>
<feOffset/>
<feGaussianBlur stdDeviation="1.5"/>
<feColorMatrix type="matrix" values="0 0 0 0 0.239167 0 0 0 0 0.239167 0 0 0 0 0.466667 0 0 0 0.4 0"/>
<feBlend mode="normal" in2="BackgroundImageFix" result="effect1_dropShadow"/>
<feBlend mode="normal" in="SourceGraphic" in2="effect1_dropShadow" result="shape"/>
</filter>
<radialGradient id="paint0_radial" cx="0" cy="0" r="1" gradientUnits="userSpaceOnUse" gradientTransform="translate(179.5 257.535) rotate(90) scale(2.41911)">
<stop stop-color="white"/>
<stop offset="1" stop-color="#DBDBFF" stop-opacity="0.97"/>
</radialGradient>
<radialGradient id="paint1_radial" cx="0" cy="0" r="1" gradientUnits="userSpaceOnUse" gradientTransform="translate(179.5 271.839) rotate(90) scale(2.41911)">
<stop stop-color="white"/>
<stop offset="1" stop-color="#DBDBFF" stop-opacity="0.97"/>
</radialGradient>
<clipPath id="clip0">
<rect width="360" height="360" fill="white"/>
</clipPath>
</defs>
</svg>
