<svg width="360" height="360" viewBox="0 0 360 360" fill="none" xmlns="http://www.w3.org/2000/svg">
<g clip-path="url(#clip0)">
<ellipse cx="94" cy="144" rx="22" ry="19" fill="#FFD0B2"/>
<ellipse cx="263" cy="144" rx="22" ry="19" fill="#FFD0B2"/>
<path fill-rule="evenodd" clip-rule="evenodd" d="M178 43C147 43 95.5 54.2 95.5 125C95.6088 125 95.7165 125 95.823 125C93.9778 136.056 93.4095 147.025 94.6942 156.5C97.8942 180.1 128.361 198 143.194 204C148.028 206 161.894 210 178.694 210C195.494 210 209.361 206 214.194 204C229.028 198 259.494 180.1 262.694 156.5C263.99 146.946 263.392 135.882 261.5 124.742C261.375 54.1727 209.962 43 179 43H178Z" fill="#FFDCBC"/>
<path fill-rule="evenodd" clip-rule="evenodd" d="M203.984 41.6663C205.284 39.1484 206 36.3908 206 33.5C206 21.6259 193.912 12 179 12C164.088 12 152 21.6259 152 33.5C152 36.3054 152.675 38.9853 153.902 41.4424C113.358 51.8759 95.5 88.5451 95.5 127C94.5 127.333 91.5 131.8 87.5 147C84.2262 159.44 91.67 170.38 97.9019 179.539C101.188 184.368 104.137 188.702 105 192.5C107 201.3 102.833 210.833 100.5 214.5C99.1666 215.167 97.7 216.1 102.5 214.5C108.5 212.5 119.5 206.5 118.5 189C117.96 179.544 114.5 173.592 111.196 167.909C108.386 163.075 105.689 158.435 105 152C103.8 140.8 111.5 120.333 115.5 111.5C137.5 111.5 150 82.8333 153.5 68.5C153.5 94.5 212.5 108 242 111.5C246 120.333 253.7 140.8 252.5 152C251.811 158.435 249.114 163.075 246.304 167.909C243 173.592 239.54 179.544 239 189C238 206.5 249 212.5 255 214.5C259.8 216.1 258.333 215.167 257 214.5C254.667 210.833 250.5 201.3 252.5 192.5C253.363 188.702 256.312 184.368 259.598 179.539C265.83 170.38 273.274 159.44 270 147C266 131.8 263 127.333 262 127C262 88.8154 244.041 52.3916 203.984 41.6663Z" fill="#161515"/>
<path d="M128.71 133.634C130.476 131.111 136.241 126.262 145.177 127.044C154.113 127.826 158.511 133.564 159.592 136.336" stroke="#8C501D" stroke-width="4" stroke-linecap="round"/>
<path d="M199.407 136.336C200.708 133.545 205.544 127.768 214.48 126.986C223.416 126.205 228.743 131.092 230.29 133.634" stroke="#8C501D" stroke-width="4" stroke-linecap="round"/>
<path d="M155 162C157.333 164.667 163.4 170 169 170C174.6 170 179 166.667 180.5 165C182 166.667 186.4 170 192 170C197.6 170 203.667 164.667 206 162" stroke="#8C501D" stroke-width="3" stroke-linecap="round" stroke-linejoin="round"/>
<ellipse cx="181" cy="143.5" rx="9" ry="5.5" fill="#FF7E36"/>
<path fill-rule="evenodd" clip-rule="evenodd" d="M155.353 207.521C144.473 209.609 126.11 218.194 108.5 242C93.5708 262.182 83.8327 274.609 76.5453 283.112C75.8737 283.038 75.1913 283 74.5 283C64.2827 283 56 291.283 56 301.5C56 311.717 64.2827 320 74.5 320C84.7173 320 93 311.717 93 301.5C93 298.965 92.49 296.549 91.567 294.348C105.418 280.375 125.52 260.542 137.853 253.5C133.649 267.573 123.181 325.514 137.853 360.5H173.5L179.75 337.5L186.5 360.5H221.647C236.319 325.514 225.851 267.573 221.647 253.5C233.409 260.216 253.274 279.603 267.588 293.989C266.567 296.285 266 298.826 266 301.5C266 311.717 274.283 320 284.5 320C294.717 320 303 311.717 303 301.5C303 291.283 294.717 283 284.5 283C284.035 283 283.574 283.017 283.118 283.051C275.383 274.008 265.073 261.025 251 242C232.741 217.317 213.672 208.997 202.975 207.316C196.493 208.76 188.048 210 178.694 210C169.786 210 161.702 208.875 155.353 207.521Z" fill="#FFDCBC"/>
<path fill-rule="evenodd" clip-rule="evenodd" d="M228.993 304.17C221.388 304.805 194.042 307 179.5 307C166.509 307 141.548 305.248 130.496 304.422C129.688 323.651 131.135 344.482 137.853 360.5H173.5L179.75 337.5L186.5 360.5H221.647C228.394 344.412 229.825 323.469 228.993 304.17Z" fill="#FFC453"/>
<g style="mix-blend-mode:hard-light" opacity="0.1" filter="url(#filter0_f)">
<path fill-rule="evenodd" clip-rule="evenodd" d="M210.094 209.12C209.12 214.652 206.646 223.035 205.476 227C205.054 228.429 204.749 230.949 204.395 233.872C203.51 241.173 202.321 250.985 198.25 252.584C192.549 254.822 186.083 256 179.5 256C172.917 256 166.451 254.822 160.75 252.584C155.049 250.346 153.5 237.5 153.5 228C153.5 222.367 151.733 217.428 150.295 213.408C149.756 211.901 149.263 210.523 148.927 209.285C151.272 208.462 153.43 207.89 155.353 207.521C161.702 208.875 169.786 210 178.694 210C188.048 210 196.493 208.76 202.975 207.316C205.054 207.642 207.45 208.22 210.094 209.12Z" fill="#700000"/>
</g>
<mask id="mask0" mask-type="alpha" maskUnits="userSpaceOnUse" x="75" y="207" width="209" height="154">
<path d="M113 235.382C123.121 222.5 143 207.882 154.5 207.882C160.667 210.382 165 214.5 179.5 214.5C194 214.5 198.333 210.382 204.5 207.882C216 207.882 236.664 223.5 246 235.382C257 249.382 281.5 277 283.5 279C285.091 280.591 277.548 287 276.015 284.628C277.608 287.094 268.633 294.486 266.599 292.32C268.699 294.556 259.776 300.565 259 299.5C249.167 286 228.7 258.7 225.5 257.5C231 289 242 353.7 242 360.5H117.5C116.7 352.9 127.833 288.667 133.5 257.5C130.3 258.7 109.833 286 100 299.5C99.2241 300.565 90.3011 294.556 92.4006 292.32C90.3672 294.486 81.3918 287.094 82.9852 284.628C81.4523 287 73.909 280.591 75.5 279C77.5 277 102 249.382 113 235.382Z" fill="black"/>
</mask>
<g mask="url(#mask0)">
<rect x="72" y="197" width="213" height="163" fill="url(#paint0_linear)"/>
<g filter="url(#filter1_d)">
<path d="M147.202 227.756C146.31 226.687 144.602 215.576 143.86 210.154L150.958 207.692C151.999 213.393 154.289 225.001 155.121 225.834C156.162 226.875 173.755 224.051 179.703 242.043C185.651 224.051 203.203 226.875 204.244 225.834C205.076 225.001 207.366 213.393 208.407 207.692L215.505 210.154C214.763 215.576 213.055 226.687 212.163 227.756C218.319 232.079 223.91 250.193 225.855 257.487L249.338 363.212H110.027L133.51 257.487L133.531 257.411C135.483 250.091 139.381 235.473 147.202 227.756Z" fill="url(#paint1_linear)"/>
</g>
<g filter="url(#filter2_i)">
<path d="M248.24 354.865C238.558 351.193 127.053 352.862 113.032 354.865V362.544H248.24V354.865Z" fill="#E1305A" fill-opacity="0.5"/>
</g>
<g style="mix-blend-mode:multiply" opacity="0.4" filter="url(#filter3_f)">
<path d="M124.382 285.091C146.083 278.081 211.183 274.408 235.22 285.091M155.536 226.639C155.512 262.469 153.064 340.633 143.46 366.644M203.959 226.639C203.983 262.469 206.431 340.633 216.035 366.644" stroke="#E1305A" stroke-opacity="0.5" stroke-width="2"/>
</g>
<g filter="url(#filter4_df)">
<path d="M158.731 302.372L136.163 298.178C135.62 298.077 135.098 298.436 134.987 298.977C132.321 311.958 125.182 323.786 142.918 327.082C160.667 330.38 157.325 317.017 159.541 303.541C159.631 302.996 159.274 302.473 158.731 302.372Z" fill="url(#paint2_linear)"/>
<path d="M158.731 302.372L136.163 298.178C135.62 298.077 135.098 298.436 134.987 298.977C132.321 311.958 125.182 323.786 142.918 327.082C160.667 330.38 157.325 317.017 159.541 303.541C159.631 302.996 159.274 302.473 158.731 302.372Z" stroke="#F78C8C"/>
</g>
<g filter="url(#filter5_df)">
<path d="M201.27 302.372L223.839 298.178C224.382 298.077 224.903 298.436 225.014 298.977C227.68 311.958 234.819 323.786 217.083 327.082C199.334 330.38 202.677 317.017 200.46 303.541C200.37 302.996 200.727 302.473 201.27 302.372Z" fill="url(#paint3_linear)"/>
<path d="M201.27 302.372L223.839 298.178C224.382 298.077 224.903 298.436 225.014 298.977C227.68 311.958 234.819 323.786 217.083 327.082C199.334 330.38 202.677 317.017 200.46 303.541C200.37 302.996 200.727 302.473 201.27 302.372Z" stroke="#F78C8C"/>
</g>
<ellipse cx="144.74" cy="308.36" rx="2.82948" ry="4.37284" fill="#FFF1DB"/>
<ellipse cx="139.989" cy="313.233" rx="2.82948" ry="4.37284" transform="rotate(-90 139.989 313.233)" fill="#FFF1DB"/>
<ellipse cx="140.709" cy="310.109" rx="2.82948" ry="4.37284" transform="rotate(-45 140.709 310.109)" fill="#FFF1DB"/>
<ellipse rx="2.82948" ry="4.37284" transform="matrix(1 0 0 -1 144.74 317.881)" fill="#FFF1DB"/>
<ellipse rx="2.82948" ry="4.37284" transform="matrix(0.707107 0.707107 0.707107 -0.707107 140.709 316.133)" fill="#FFF1DB"/>
<ellipse rx="2.82948" ry="4.37284" transform="matrix(4.37114e-08 -1 -1 -4.37114e-08 149.388 313.233)" fill="#FFF1DB"/>
<ellipse rx="2.82948" ry="4.37284" transform="matrix(-0.707107 -0.707107 -0.707107 0.707107 148.668 310.109)" fill="#FFF1DB"/>
<ellipse cx="148.668" cy="316.133" rx="2.82948" ry="4.37284" transform="rotate(135 148.668 316.133)" fill="#FFF1DB"/>
<circle cx="144.689" cy="313.06" r="3.62911" fill="#FFC369"/>
<ellipse rx="2.82948" ry="4.37284" transform="matrix(-1 0 0 1 216.08 308.36)" fill="#FFF1DB"/>
<ellipse rx="2.82948" ry="4.37284" transform="matrix(4.37114e-08 -1 -1 -4.37114e-08 220.832 313.233)" fill="#FFF1DB"/>
<ellipse rx="2.82948" ry="4.37284" transform="matrix(-0.707107 -0.707107 -0.707107 0.707107 220.112 310.109)" fill="#FFF1DB"/>
<ellipse cx="216.08" cy="317.881" rx="2.82948" ry="4.37284" transform="rotate(180 216.08 317.881)" fill="#FFF1DB"/>
<ellipse cx="220.112" cy="316.133" rx="2.82948" ry="4.37284" transform="rotate(135 220.112 316.133)" fill="#FFF1DB"/>
<ellipse cx="211.432" cy="313.233" rx="2.82948" ry="4.37284" transform="rotate(-90 211.432 313.233)" fill="#FFF1DB"/>
<ellipse cx="212.152" cy="310.109" rx="2.82948" ry="4.37284" transform="rotate(-45 212.152 310.109)" fill="#FFF1DB"/>
<ellipse rx="2.82948" ry="4.37284" transform="matrix(0.707107 0.707107 0.707107 -0.707107 212.152 316.133)" fill="#FFF1DB"/>
<circle r="3.62911" transform="matrix(-1 0 0 1 216.132 313.06)" fill="#FFC369"/>
<g filter="url(#filter6_df)">
<path d="M154.526 207.544C160.921 215.722 172.222 223.752 179.806 223.752C185.873 223.752 199.087 212.946 204.936 207.544" stroke="#E8A627"/>
</g>
<g filter="url(#filter7_i)">
<path d="M105.537 297.718C99.7434 295.044 86.3753 284.572 76.7944 274.323L72.3384 279.225L83.256 292.148L100.189 301.951L105.537 297.718Z" fill="#E1305A" fill-opacity="0.5"/>
</g>
<g filter="url(#filter8_i)">
<path d="M253.127 296.383C258.92 293.709 272.288 283.237 281.869 272.988L286.325 277.89L275.407 290.812L258.474 300.616L253.127 296.383Z" fill="#E1305A" fill-opacity="0.5"/>
</g>
</g>
</g>
<defs>
<filter id="filter0_f" x="146.927" y="205.316" width="65.1671" height="52.6844" filterUnits="userSpaceOnUse" color-interpolation-filters="sRGB">
<feFlood flood-opacity="0" result="BackgroundImageFix"/>
<feBlend mode="normal" in="SourceGraphic" in2="BackgroundImageFix" result="shape"/>
<feGaussianBlur stdDeviation="1" result="effect1_foregroundBlur"/>
</filter>
<filter id="filter1_d" x="106.027" y="203.692" width="147.31" height="163.519" filterUnits="userSpaceOnUse" color-interpolation-filters="sRGB">
<feFlood flood-opacity="0" result="BackgroundImageFix"/>
<feColorMatrix in="SourceAlpha" type="matrix" values="0 0 0 0 0 0 0 0 0 0 0 0 0 0 0 0 0 0 127 0"/>
<feOffset/>
<feGaussianBlur stdDeviation="2"/>
<feColorMatrix type="matrix" values="0 0 0 0 0.933333 0 0 0 0 0.563889 0 0 0 0 0.563889 0 0 0 0.25 0"/>
<feBlend mode="normal" in2="BackgroundImageFix" result="effect1_dropShadow"/>
<feBlend mode="normal" in="SourceGraphic" in2="effect1_dropShadow" result="shape"/>
</filter>
<filter id="filter2_i" x="113.032" y="352.693" width="135.208" height="9.8509" filterUnits="userSpaceOnUse" color-interpolation-filters="sRGB">
<feFlood flood-opacity="0" result="BackgroundImageFix"/>
<feBlend mode="normal" in="SourceGraphic" in2="BackgroundImageFix" result="shape"/>
<feColorMatrix in="SourceAlpha" type="matrix" values="0 0 0 0 0 0 0 0 0 0 0 0 0 0 0 0 0 0 127 0" result="hardAlpha"/>
<feOffset/>
<feGaussianBlur stdDeviation="1.5"/>
<feComposite in2="hardAlpha" operator="arithmetic" k2="-1" k3="1"/>
<feColorMatrix type="matrix" values="0 0 0 0 0.933333 0 0 0 0 0.563889 0 0 0 0 0.563889 0 0 0 0.25 0"/>
<feBlend mode="normal" in2="shape" result="effect1_innerShadow"/>
</filter>
<filter id="filter3_f" x="121.075" y="223.638" width="117.551" height="146.353" filterUnits="userSpaceOnUse" color-interpolation-filters="sRGB">
<feFlood flood-opacity="0" result="BackgroundImageFix"/>
<feBlend mode="normal" in="SourceGraphic" in2="BackgroundImageFix" result="shape"/>
<feGaussianBlur stdDeviation="1.5" result="effect1_foregroundBlur"/>
</filter>
<filter id="filter4_df" x="127.799" y="296.661" width="35.2561" height="36.4277" filterUnits="userSpaceOnUse" color-interpolation-filters="sRGB">
<feFlood flood-opacity="0" result="BackgroundImageFix"/>
<feColorMatrix in="SourceAlpha" type="matrix" values="0 0 0 0 0 0 0 0 0 0 0 0 0 0 0 0 0 0 127 0"/>
<feOffset dy="2"/>
<feGaussianBlur stdDeviation="1.5"/>
<feColorMatrix type="matrix" values="0 0 0 0 0.933333 0 0 0 0 0.563889 0 0 0 0 0.563889 0 0 0 0.25 0"/>
<feBlend mode="normal" in2="BackgroundImageFix" result="effect1_dropShadow"/>
<feBlend mode="normal" in="SourceGraphic" in2="effect1_dropShadow" result="shape"/>
<feGaussianBlur stdDeviation="0.1" result="effect2_foregroundBlur"/>
</filter>
<filter id="filter5_df" x="196.946" y="296.661" width="35.2561" height="36.4277" filterUnits="userSpaceOnUse" color-interpolation-filters="sRGB">
<feFlood flood-opacity="0" result="BackgroundImageFix"/>
<feColorMatrix in="SourceAlpha" type="matrix" values="0 0 0 0 0 0 0 0 0 0 0 0 0 0 0 0 0 0 127 0"/>
<feOffset dy="2"/>
<feGaussianBlur stdDeviation="1.5"/>
<feColorMatrix type="matrix" values="0 0 0 0 0.933333 0 0 0 0 0.563889 0 0 0 0 0.563889 0 0 0 0.25 0"/>
<feBlend mode="normal" in2="BackgroundImageFix" result="effect1_dropShadow"/>
<feBlend mode="normal" in="SourceGraphic" in2="effect1_dropShadow" result="shape"/>
<feGaussianBlur stdDeviation="0.1" result="effect2_foregroundBlur"/>
</filter>
<filter id="filter6_df" x="152.132" y="206.176" width="55.1428" height="21.0757" filterUnits="userSpaceOnUse" color-interpolation-filters="sRGB">
<feFlood flood-opacity="0" result="BackgroundImageFix"/>
<feColorMatrix in="SourceAlpha" type="matrix" values="0 0 0 0 0 0 0 0 0 0 0 0 0 0 0 0 0 0 127 0"/>
<feOffset dy="1"/>
<feGaussianBlur stdDeviation="1"/>
<feColorMatrix type="matrix" values="0 0 0 0 0.493627 0 0 0 0 0.6625 0 0 0 0 0.483073 0 0 0 0.3 0"/>
<feBlend mode="normal" in2="BackgroundImageFix" result="effect1_dropShadow"/>
<feBlend mode="normal" in="SourceGraphic" in2="effect1_dropShadow" result="shape"/>
<feGaussianBlur stdDeviation="0.1" result="effect2_foregroundBlur"/>
</filter>
<filter id="filter7_i" x="72.3384" y="274.323" width="33.1982" height="27.6281" filterUnits="userSpaceOnUse" color-interpolation-filters="sRGB">
<feFlood flood-opacity="0" result="BackgroundImageFix"/>
<feBlend mode="normal" in="SourceGraphic" in2="BackgroundImageFix" result="shape"/>
<feColorMatrix in="SourceAlpha" type="matrix" values="0 0 0 0 0 0 0 0 0 0 0 0 0 0 0 0 0 0 127 0" result="hardAlpha"/>
<feOffset/>
<feGaussianBlur stdDeviation="1.5"/>
<feComposite in2="hardAlpha" operator="arithmetic" k2="-1" k3="1"/>
<feColorMatrix type="matrix" values="0 0 0 0 0.431373 0 0 0 0 0.627451 0 0 0 0 0.419608 0 0 0 0.4 0"/>
<feBlend mode="normal" in2="shape" result="effect1_innerShadow"/>
</filter>
<filter id="filter8_i" x="253.126" y="272.988" width="33.1982" height="27.6281" filterUnits="userSpaceOnUse" color-interpolation-filters="sRGB">
<feFlood flood-opacity="0" result="BackgroundImageFix"/>
<feBlend mode="normal" in="SourceGraphic" in2="BackgroundImageFix" result="shape"/>
<feColorMatrix in="SourceAlpha" type="matrix" values="0 0 0 0 0 0 0 0 0 0 0 0 0 0 0 0 0 0 127 0" result="hardAlpha"/>
<feOffset/>
<feGaussianBlur stdDeviation="1.5"/>
<feComposite in2="hardAlpha" operator="arithmetic" k2="-1" k3="1"/>
<feColorMatrix type="matrix" values="0 0 0 0 0.431373 0 0 0 0 0.627451 0 0 0 0 0.419608 0 0 0 0.4 0"/>
<feBlend mode="normal" in2="shape" result="effect1_innerShadow"/>
</filter>
<linearGradient id="paint0_linear" x1="178.5" y1="197" x2="178.5" y2="293.104" gradientUnits="userSpaceOnUse">
<stop stop-color="#FFFAF1"/>
<stop offset="1" stop-color="#FFF8E0"/>
</linearGradient>
<linearGradient id="paint1_linear" x1="209.99" y1="223.58" x2="155.966" y2="363.212" gradientUnits="userSpaceOnUse">
<stop stop-color="#FFBDB4"/>
<stop offset="1" stop-color="#FB9E9E"/>
</linearGradient>
<linearGradient id="paint2_linear" x1="154.09" y1="303.549" x2="142.63" y2="327.028" gradientUnits="userSpaceOnUse">
<stop stop-color="#EE9090" stop-opacity="0.25"/>
<stop offset="1" stop-color="#EE9090" stop-opacity="0.25"/>
</linearGradient>
<linearGradient id="paint3_linear" x1="205.911" y1="303.549" x2="217.371" y2="327.028" gradientUnits="userSpaceOnUse">
<stop stop-color="#EE9090" stop-opacity="0.25"/>
<stop offset="1" stop-color="#EE9090" stop-opacity="0.25"/>
</linearGradient>
<clipPath id="clip0">
<rect width="360" height="360" fill="white"/>
</clipPath>
</defs>
</svg>
